{"title":"The White Ribbon (2009)","uid":5412989,"size":1465344713,"categoryP":"video","categoryS":"movies","magnet":"?xt=urn:btih:6939cf70a1a4573fa1bc7b3034e5edb551092b58&amp;dn=The+White+Ribbon+%282009%29&amp;tr=udp%3A%2F%2Ftracker.openbittorrent.com%3A80&amp;tr=udp%3A%2F%2Fopen.demonii.com%3A1337&amp;tr=udp%3A%2F%2Ftracker.coppersurfer.tk%3A6969&amp;tr=udp%3A%2F%2Fexodus.desync.com%3A6969","seeders":5,"leechers":1,"uploader":"mfccorrea","files":8,"time":1267811775,"description":"In a village in Protestant northern Germany, on the eve of World War I, the children of a church and school run by the village schoolteacher and their families experience a series of bizarre incidents that inexplicably assume the characteristics of a punishment ritual. Who could be responsible for such bizarre transgressions? Leonie Benesch, Josef Bierbichler, and Rainer Bock star in director Michael Haneke's Palm d'Or-winning period drama. \n\n   General\n      Format : AVI\n      Format/Info : Audio Video Interleave\n      File size : 1.36 GiB\n      Duration : 2h 23mn\n      Overall bit rate : 1 360 Kbps\n      Writing library : VirtualDub build 0/release\n   Video #0\n      ID : 0\n      Format : MPEG-4 Visual\n      Format profile : AdvancedSimple@L5\n      Format settings, BVOP : Yes\n      Format settings, QPel : No\n      Format settings, GMC : No warppoints\n      Format settings, Matrix : Default (MPEG)\n      Codec ID : XVID\n      Codec ID/Hint : XviD\n      Duration : 2h 23mn\n      Bit rate : 967 Kbps\n      Width : 624 pixels\n      Height : 336 pixels\n      Display aspect ratio : 1.857\n      Frame rate : 23.976 fps\n      Resolution : 24 bits\n      Colorimetry : 4:2:0\n      Scan type : Progressive\n      Bits/(Pixel*Frame) : 0.192\n      Stream size : 993 MiB (71%)\n      Writing library : XviD 1.2.1 (UTC 2008-12-04)\n   Audio #1\n      ID : 1\n      Format : AC-3\n      Format/Info : Audio Coding 3\n      Codec ID : 2000\n      Duration : 2h 23mn\n      Bit rate mode : Constant\n      Bit rate : 384 Kbps\n      Channel(s) : 6 channels\n      Channel positions : Front: L C R, Surround: L R, LFE\n      Sampling rate : 48.0 KHz\n      Stream size : 394 MiB (28%)\n      Alignment : Split accross interleaves\n      Interleave, duration : 42 ms (1.00 video frame)\n      Interleave, preload duration : 500 ms\n\nIMDB: tt1149362\n\nFilm split in two files. Specs are the average of both.\n\nGerman audio; English, Portuguese and Spanish subtitles","torrent":{"xt":"urn:btih:6939cf70a1a4573fa1bc7b3034e5edb551092b58","amp;dn":"The+White+Ribbon+%282009%29","amp;tr":["udp%3A%2F%2Ftracker.openbittorrent.com%3A80","udp%3A%2F%2Fopen.demonii.com%3A1337","udp%3A%2F%2Ftracker.coppersurfer.tk%3A6969","udp%3A%2F%2Fexodus.desync.com%3A6969"],"infoHash":"6939cf70a1a4573fa1bc7b3034e5edb551092b58","infoHashBuffer":{"type":"Buffer","data":[105,57,207,112,161,164,87,63,161,188,123,48,52,229,237,181,81,9,43,88]},"announce":[],"urlList":[]}}